<svg width="14" height="13" viewBox="0 0 14 13" fill="none" xmlns="http://www.w3.org/2000/svg">
<path d="M7.13594 12.3L6.57723 11.7953C5.37392 10.6959 4.37852 9.75493 3.59106 8.97226C2.80372 8.18946 2.18221 7.49914 1.72654 6.90129C1.27088 6.30344 0.952534 5.76249 0.771521 5.27843C0.590507 4.7945 0.5 4.30768 0.5 3.81797C0.5 2.88021 0.818587 2.09281 1.45576 1.45576C2.09281 0.818586 2.88021 0.5 3.81797 0.5C4.46645 0.5 5.07475 0.665899 5.64286 0.997696C6.21097 1.32949 6.70866 1.81207 7.13594 2.44544C7.56322 1.81207 8.06092 1.32949 8.62903 0.997696C9.19714 0.665899 9.80544 0.5 10.4539 0.5C11.3917 0.5 12.1791 0.818586 12.8161 1.45576C13.4533 2.09281 13.7719 2.88021 13.7719 3.81797C13.7719 4.30768 13.6814 4.7945 13.5004 5.27843C13.3194 5.76249 13.001 6.30344 12.5453 6.90129C12.0897 7.49914 11.4705 8.18946 10.6878 8.97226C9.90516 9.75493 8.90743 10.6959 7.69465 11.7953L7.13594 12.3ZM7.13594 11.3018C8.31567 10.2355 9.28648 9.32218 10.0484 8.56175C10.8103 7.8012 11.4124 7.14135 11.8548 6.58221C12.2972 6.02307 12.6045 5.52777 12.7765 5.09631C12.9485 4.66473 13.0346 4.23862 13.0346 3.81797C13.0346 3.08065 12.7888 2.46621 12.2972 1.97465C11.8057 1.4831 11.1912 1.23733 10.4539 1.23733C9.86688 1.23733 9.32525 1.40489 8.82903 1.74C8.33268 2.07512 7.88839 2.57963 7.49613 3.25355H6.77576C6.37404 2.57017 5.9274 2.06326 5.43585 1.73281C4.9443 1.40249 3.81797 1.23733 3.81797 1.23733C3.81797 1.23733 2.478 1.4831 1.98166 1.97465C1.48544 2.46621 1.23733 3.08065 1.23733 3.81797C1.23733 4.23862 1.32335 4.66473 1.49539 5.09631C1.66743 5.52777 1.97465 6.02307 2.41705 6.58221C2.85945 7.14135 3.4616 7.7988 4.2235 8.55456C4.98541 9.31032 5.95622 10.2261 7.13594 11.3018Z" fill="#222222" fill-opacity="0.1"/>
<path d="M7.13594 11.3018C8.31567 10.2355 9.28648 9.32218 10.0484 8.56175C10.8103 7.8012 11.4124 7.14135 11.8548 6.58221C12.2972 6.02307 12.6045 5.52777 12.7765 5.09631C12.9485 4.66473 13.0346 4.23862 13.0346 3.81797C13.0346 3.08065 12.7888 2.46621 12.2972 1.97465C11.8057 1.4831 11.1912 1.23733 10.4539 1.23733C9.86688 1.23733 9.32525 1.40489 8.82903 1.74C8.33268 2.07512 7.88839 2.57963 7.49613 3.25355H6.77576C6.37404 2.57017 5.9274 2.06326 5.43585 1.73281C4.9443 1.40249 3.81797 1.23733 3.81797 1.23733C3.81797 1.23733 2.478 1.4831 1.98166 1.97465C1.48544 2.46621 1.23733 3.08065 1.23733 3.81797C1.23733 4.23862 1.32335 4.66473 1.49539 5.09631C1.66743 5.52777 1.97465 6.02307 2.41705 6.58221C2.85945 7.14135 3.4616 7.7988 4.2235 8.55456C4.98541 9.31032 5.95622 10.2261 7.13594 11.3018Z" fill="#222222" fill-opacity="0.1"/>
</svg>
